<?xml version="1.0" standalone="no"?><!DOCTYPE svg PUBLIC "-//W3C//DTD SVG 1.1//EN" "http://www.w3.org/Graphics/SVG/1.1/DTD/svg11.dtd"><svg width="600" height="350" version="1.1" xmlns="http://www.w3.org/2000/svg" xmlns:xlink="http://www.w3.org/1999/xlink"><defs xmlns="http://www.w3.org/1999/xhtml"><style type="text/css"><![CDATA[]]></style></defs><g transform="translate(80,10)"><defs><linearGradient id="svgGradient" x1="0%" x2="100%" y1="0%" y2="0%"><stop class="start" offset="66.66771564338987%" stop-color="#484848" stop-opacity="1"/><stop class="end" offset="66.66771564338987%" stop-color="#740702" stop-opacity="1"/></linearGradient></defs><path class="area" d="M0,289.82938667451094L5.989237498819901,289.82938667451094L41.8428423073292,289.8720400058832L47.81571576926708,289.82938667451094L53.80495326808698,289.8720400058832L77.71281115272052,289.82938667451094L83.6856846146584,289.95734666862774L95.63143153853416,289.80806000882484L101.62066903735406,289.82938667451094L107.59354249929194,289.91469333725547L113.56641596122982,289.95734666862774L119.53928942316769,289.7867333431387L131.50140038392547,289.8507133401971L137.47427384586334,289.93602000294163L143.44714730780123,289.65877334902194L149.43638480662116,289.7227533460803L155.409258268559,289.7227533460803L161.3821317304969,289.82938667451094L167.35500519243476,289.6374466833358L173.3442426912547,289.6161200176497L179.3171161531926,289.4668333578467L185.28998961513042,288.97632004706577L191.26286307706832,289.01897337843803L197.25210057588822,288.97632004706577L203.22497403782612,288.5497867333431L209.19784749976398,288.3151934107957L215.17072096170185,287.59008677746726L221.15995846052178,287.1635534637447L227.13283192245964,286.0545668480659L233.10570538439754,285.37211354610974L239.07857884633538,286.075893513752L245.0678163451553,285.2868068833652L251.0406898070932,284.3057802618032L257.01356326903107,283.4740403000441L262.98643673096893,281.0428004118253L268.97567422978886,279.2300338285042L274.9485476917267,278.8035005147816L280.9214211536646,278.7181938520371L286.89429461560246,276.30828062950434L292.8835321144224,274.132960729519L298.85640557636026,274.73010736873067L304.8292790382981,273.8130607442271L310.802152500236,274.60214737461393L316.7913899990559,274.6874540373584L322.7642634609938,273.27989410207385L328.7371369229317,272.6827474628622L334.7100103848695,271.1685541991469L340.69924788368945,269.8889542579791L346.6721213456273,269.5264009413149L352.64499480756524,191.23621120753052L358.6178682695031,187.9732313575526L364.607105768323,188.93293131342847L370.57997923026085,185.9471981173702L376.55285269219877,180.42359170466244L382.52572615413663,177.58714516840712L388.51496365295657,173.40711869392555L394.4878371148944,171.21047212825414L400.4607105768323,154.490366230328L406.43358403877016,149.88380644212384L412.4228215375901,144.89336667156934L418.39569499952796,138.83659361670834L424.3685684614658,136.27739373437268L430.3414419234037,134.25136049419032L436.3306794222236,129.0903073981468L442.3035528841615,124.97426092072362L448.27642634609936,118.44830122076777L454.2492998080372,113.43653478452714L460.23853730685715,110.81335490513311L466.2114107687951,104.37270186792176L472.18428423073294,97.24959552875424L478.15715769267075,93.73069569054272L484.1463951914907,84.83747609942637L490.1192686534286,85.51992940138257L496.09214211536647,82.61950286806885L502.06501557730434,8.722606265627292L508.0542530761242,0L514.0271265380621,57.98720400058832L520,289.91469333725547L520,290L514.0271265380621,290L508.0542530761242,290L502.06501557730434,290L496.09214211536647,290L490.1192686534286,290L484.1463951914907,290L478.15715769267075,290L472.18428423073294,290L466.2114107687951,290L460.23853730685715,290L454.2492998080372,290L448.27642634609936,290L442.3035528841615,290L436.3306794222236,290L430.3414419234037,290L424.3685684614658,290L418.39569499952796,290L412.4228215375901,290L406.43358403877016,290L400.4607105768323,290L394.4878371148944,290L388.51496365295657,290L382.52572615413663,290L376.55285269219877,290L370.57997923026085,290L364.607105768323,290L358.6178682695031,290L352.64499480756524,290L346.6721213456273,290L340.69924788368945,290L334.7100103848695,290L328.7371369229317,290L322.7642634609938,290L316.7913899990559,290L310.802152500236,290L304.8292790382981,290L298.85640557636026,290L292.8835321144224,290L286.89429461560246,290L280.9214211536646,290L274.9485476917267,290L268.97567422978886,290L262.98643673096893,290L257.01356326903107,290L251.0406898070932,290L245.0678163451553,290L239.07857884633538,290L233.10570538439754,290L227.13283192245964,290L221.15995846052178,290L215.17072096170185,290L209.19784749976398,290L203.22497403782612,290L197.25210057588822,290L191.26286307706832,290L185.28998961513042,290L179.3171161531926,290L173.3442426912547,290L167.35500519243476,290L161.3821317304969,290L155.409258268559,290L149.43638480662116,290L143.44714730780123,290L137.47427384586334,290L131.50140038392547,290L119.53928942316769,290L113.56641596122982,290L107.59354249929194,290L101.62066903735406,290L95.63143153853416,290L83.6856846146584,290L77.71281115272052,290L53.80495326808698,290L47.81571576926708,290L41.8428423073292,290L5.989237498819901,290L0,290Z" fill="url(#svgGradient)"/><g class="axis x-axis areaChart" transform="translate(0,290)" fill="none" font-size="10" font-family="sans-serif" text-anchor="middle"><path class="domain" stroke="#000" d="M0.5,6V0.5H520.5V6"/><g class="tick" opacity="1" transform="translate(48.31571576926708,0)"><line stroke="#000" y2="6"/><text fill="#000" y="9" dy="0.71em">1940</text></g><g class="tick" opacity="1" transform="translate(108.09354249929194,0)"><line stroke="#000" y2="6"/><text fill="#000" y="9" dy="0.71em">1950</text></g><g class="tick" opacity="1" transform="translate(167.85500519243476,0)"><line stroke="#000" y2="6"/><text fill="#000" y="9" dy="0.71em">1960</text></g><g class="tick" opacity="1" transform="translate(227.63283192245964,0)"><line stroke="#000" y2="6"/><text fill="#000" y="9" dy="0.71em">1970</text></g><g class="tick" opacity="1" transform="translate(287.39429461560246,0)"><line stroke="#000" y2="6"/><text fill="#000" y="9" dy="0.71em">1980</text></g><g class="tick" opacity="1" transform="translate(347.1721213456273,0)"><line stroke="#000" y2="6"/><text fill="#000" y="9" dy="0.71em">1990</text></g><g class="tick" opacity="1" transform="translate(406.93358403877016,0)"><line stroke="#000" y2="6"/><text fill="#000" y="9" dy="0.71em">2000</text></g><g class="tick" opacity="1" transform="translate(466.7114107687951,0)"><line stroke="#000" y2="6"/><text fill="#000" y="9" dy="0.71em">2010</text></g></g><g class="axis y-axis" fill="none" font-size="10" font-family="sans-serif" text-anchor="end"><path class="domain" stroke="#000" d="M-6,290.5H0.5V0.5H-6"/><g class="tick" opacity="1" transform="translate(0,290.5)"><line stroke="#000" x2="-6"/><text fill="#000" x="-9" dy="0.32em">0</text></g><g class="tick" opacity="1" transform="translate(0,269.1733343138697)"><line stroke="#000" x2="-6"/><text fill="#000" x="-9" dy="0.32em">1,000</text></g><g class="tick" opacity="1" transform="translate(0,247.84666862773938)"><line stroke="#000" x2="-6"/><text fill="#000" x="-9" dy="0.32em">2,000</text></g><g class="tick" opacity="1" transform="translate(0,226.52000294160905)"><line stroke="#000" x2="-6"/><text fill="#000" x="-9" dy="0.32em">3,000</text></g><g class="tick" opacity="1" transform="translate(0,205.19333725547875)"><line stroke="#000" x2="-6"/><text fill="#000" x="-9" dy="0.32em">4,000</text></g><g class="tick" opacity="1" transform="translate(0,183.86667156934843)"><line stroke="#000" x2="-6"/><text fill="#000" x="-9" dy="0.32em">5,000</text></g><g class="tick" opacity="1" transform="translate(0,162.5400058832181)"><line stroke="#000" x2="-6"/><text fill="#000" x="-9" dy="0.32em">6,000</text></g><g class="tick" opacity="1" transform="translate(0,141.21334019708783)"><line stroke="#000" x2="-6"/><text fill="#000" x="-9" dy="0.32em">7,000</text></g><g class="tick" opacity="1" transform="translate(0,119.8866745109575)"><line stroke="#000" x2="-6"/><text fill="#000" x="-9" dy="0.32em">8,000</text></g><g class="tick" opacity="1" transform="translate(0,98.56000882482721)"><line stroke="#000" x2="-6"/><text fill="#000" x="-9" dy="0.32em">9,000</text></g><g class="tick" opacity="1" transform="translate(0,77.23334313869685)"><line stroke="#000" x2="-6"/><text fill="#000" x="-9" dy="0.32em">10,000</text></g><g class="tick" opacity="1" transform="translate(0,55.90667745256658)"><line stroke="#000" x2="-6"/><text fill="#000" x="-9" dy="0.32em">11,000</text></g><g class="tick" opacity="1" transform="translate(0,34.58001176643623)"><line stroke="#000" x2="-6"/><text fill="#000" x="-9" dy="0.32em">12,000</text></g><g class="tick" opacity="1" transform="translate(0,13.25334608030596)"><line stroke="#000" x2="-6"/><text fill="#000" x="-9" dy="0.32em">13,000</text></g></g><text transform="translate(-50,145)rotate(270)" text-anchor="middle">Course Count</text><text transform="translate(260,330)" text-anchor="middle">Year</text></g></svg>